<?xml version="1.0" standalone="no"?><!DOCTYPE svg PUBLIC "-//W3C//DTD SVG 1.1//EN" "http://www.w3.org/Graphics/SVG/1.1/DTD/svg11.dtd"><svg t="1778754969726" class="icon" viewBox="0 0 1024 1024" version="1.1" xmlns="http://www.w3.org/2000/svg" p-id="43026" xmlns:xlink="http://www.w3.org/1999/xlink" width="200" height="200"><path d="M541.3888 409.6a76.8 76.8 0 0 1 68.6592 111.104l-182.8864 365.9264c-28.3136 56.576-109.056 56.576-137.3696 0L106.8032 520.704A76.8 76.8 0 0 1 175.5136 409.6h365.8752z m9.216 537.2928a43.1104 43.1104 0 1 1-77.1072-38.5536l237.4656-474.9312a43.1104 43.1104 0 0 1 77.1072 38.5536l-237.4144 474.9312z m150.528 0a43.1104 43.1104 0 1 1-77.056-38.5536l237.4144-474.9312a43.1104 43.1104 0 1 1 77.1072 38.5536l-237.4144 474.9312zM358.4 0a153.6 153.6 0 1 1 0 307.2 153.6 153.6 0 0 1 0-307.2z m153.6 0a153.6 153.6 0 0 1 0 307.2c-6.6048 0-9.3696-8.1408-4.8128-12.9536A204.032 204.032 0 0 0 563.2512 153.6 204.0832 204.0832 0 0 0 507.136 12.9024C502.6816 8.0896 505.3952 0 512.0512 0z m150.528 0a153.6 153.6 0 0 1 0 307.2c-6.5536 0-9.3184-8.1408-4.7616-12.9536A203.9808 203.9808 0 0 0 713.728 153.6 204.0832 204.0832 0 0 0 657.7664 12.9024C653.1584 8.0896 655.9744 0 662.528 0z" fill="#FA4039" p-id="43027"></path></svg>