<?xml version="1.0" standalone="no"?><!DOCTYPE svg PUBLIC "-//W3C//DTD SVG 1.1//EN" "http://www.w3.org/Graphics/SVG/1.1/DTD/svg11.dtd"><svg t="1778818622237" class="icon" viewBox="0 0 1024 1024" version="1.1" xmlns="http://www.w3.org/2000/svg" p-id="5807" xmlns:xlink="http://www.w3.org/1999/xlink" width="200" height="200"><path d="M772.039 1021c-64.305 0-124.76-25.041-170.229-70.512-45.469-45.473-70.512-105.929-70.512-170.23s25.042-124.761 70.512-170.229c45.471-45.474 105.926-70.515 170.229-70.515 64.307 0 124.764 25.041 170.231 70.514 45.469 45.471 70.512 105.926 70.512 170.229 0 64.306-25.042 124.761-70.512 170.23C896.802 995.959 836.344 1021 772.039 1021z m0-445.485c-112.896 0-204.739 91.851-204.739 204.743C567.3 893.154 659.144 985 772.039 985c112.896 0 204.743-91.847 204.743-204.742s-91.848-204.743-204.743-204.743z" p-id="5808"></path><path d="M905.25 801.229c0 9.94-8.061 18-18 18H773.172c-9.941 0-18-8.06-18-18 0-9.941 8.059-18 18-18H887.25c9.939 0 18 8.058 18 18z" p-id="5809"></path><path d="M791.172 801.229c0 9.939-8.062 18-18 18-9.939 0-18-8.061-18-18V627.15c0-9.941 8.061-18 18-18 9.938 0 18 8.059 18 18v174.079zM591.627 326.954c7.34 6.7 7.857 18.086 1.156 25.428-6.701 7.342-18.09 7.861-25.432 1.158L407.97 208.873c-7.342-6.703-7.859-18.088-1.158-25.428 6.703-7.343 18.089-7.861 25.432-1.158l159.383 144.667z" p-id="5810"></path><path d="M592.791 352.674c-6.783 7.267-18.178 7.65-25.439 0.865-7.268-6.785-7.65-18.18-0.865-25.438l236.04-255.178c6.785-7.265 18.18-7.649 25.439-0.863 7.266 6.785 7.65 18.177 0.867 25.44L592.791 352.674zM168.076 495c-6.785 7.267-18.177 7.65-25.438 0.863-7.268-6.783-7.652-18.178-0.866-25.439L407 183.292c6.782-7.265 18.178-7.65 25.438-0.865 7.266 6.787 7.651 18.178 0.866 25.441L168.076 495z" p-id="5811"></path><path d="M867.459 58c0 9.939-8.061 18-18 18H715.381c-9.941 0-18-8.061-18-18 0-9.941 8.059-18 18-18h134.078c9.939 0 18 8.057 18 18z" p-id="5812"></path><path d="M867.459 192.077c0 9.938-8.063 18-18 18-9.939 0-18-8.062-18-18V58c0-9.941 8.061-18 18-18 9.938 0 18 8.059 18 18v134.077zM174.5 619.229c-9.941 0-18 8.059-18 18V938c0 9.941 8.059 18 18 18s18-8.059 18-18V637.229c0-9.942-8.059-18-18-18zM400.277 346.729c-9.941 0-18 8.059-18 18V938c0 9.941 8.059 18 18 18s18-8.059 18-18V364.729c0-9.942-8.059-18-18-18zM869.832 568.886V294.729c0-9.941-8.059-18-18-18s-18 8.059-18 18v262.918a228.374 228.374 0 0 1 36 11.239zM644.054 581.996V457.229c0-9.941-8.059-18-18-18s-18 8.059-18 18v150.3a196.4 196.4 0 0 1 36-25.533z" p-id="5813"></path></svg>